# xmcd CD database file
#
# Track frame offsets:
#	187
#	16690
#	34297
#	54070
#	73717
#	91510
#	112125
#	130492
#	150272
#	170932
#	185757
#	202727
#	216817
#	234642
#	251367
#	268847
#	288775
#	309230
#	326517
#
# Disc length: 4584 seconds
#
# Revision: 0
# Processed by: cddbd v1.5.1PL0 Copyright (c) Steve Scherf et al.
# Submitted via: CDex 1.50beta10
#
DISCID=0311e613
DTITLE=NINI ROSSO - Deluxe
DYEAR=1900
DGENRE=Jazz
TTITLE0=OH SOLE MIO
TTITLE1=SINNO ME MORO
TTITLE2=CORE 'NGRATO (CATARI, CATARI)
TTITLE3=VENTICELLO DE ROMA
TTITLE4=TORNA A SURRIENTO
TTITLE5=VOLARE
TTITLE6=ROMA, NUN FA LA STUPIDA STASERE
TTITLE7=CIAO CIAO BAMBINA
TTITLE8=ANE MA E CORE
TTITLE9=BOUONA SERA,
TTITLE10=LA PALOMA
TTITLE11=QUIERE ME MUCHO
TTITLE12=SANTO DOMINGO
TTITLE13=ESTRALITA
TTITLE14=MAMMA
TTITLE15=THREE COINS IN THE FOUNTAIN
TTITLE16=ARRIVEDERCI, ROMA
TTITLE17=CAPRICIO ROMANTICO
TTITLE18=SOMEDAY, SOMEWHERE, SOMEHOW, CIAO!!
EXTD=
EXTT0=
EXTT1=
EXTT2=
EXTT3=
EXTT4=
EXTT5=
EXTT6=
EXTT7=
EXTT8=
EXTT9=
EXTT10=
EXTT11=
EXTT12=
EXTT13=
EXTT14=
EXTT15=
EXTT16=
EXTT17=
EXTT18=
PLAYORDER=
